<svg width="45" height="45" viewBox="0 0 45 45" fill="none" xmlns="http://www.w3.org/2000/svg">
<path d="M29.25 5.06239C25.2397 3.50442 20.8157 3.37295 16.72 4.69005C12.6243 6.00715 9.10611 8.69268 6.75565 12.2961C4.4052 15.8996 3.36546 20.2018 3.81086 24.4809C4.25626 28.7601 6.1597 32.7559 9.20186 35.798C12.244 38.8402 16.2398 40.7436 20.519 41.189C24.7981 41.6344 29.1003 40.5947 32.7038 38.2443C36.3072 35.8938 38.9928 32.3756 40.3099 28.2799C41.627 24.1842 41.4955 19.7602 39.9375 15.7499M25.125 19.8749L35.625 9.37489M26.25 22.4999C26.25 24.571 24.5711 26.2499 22.5 26.2499C20.4289 26.2499 18.75 24.571 18.75 22.4999C18.75 20.4288 20.4289 18.7499 22.5 18.7499C24.5711 18.7499 26.25 20.4288 26.25 22.4999Z" stroke="white" stroke-width="2" stroke-linecap="round" stroke-linejoin="round"/>
</svg>
