<svg width="45" height="45" viewBox="0 0 45 45" fill="none" xmlns="http://www.w3.org/2000/svg">
<path d="M22.5 37.5V41.25M22.5 3.75V7.5M31.875 37.5V41.25M31.875 3.75V7.5M3.75 22.5H7.5M3.75 31.875H7.5M3.75 13.125H7.5M37.5 22.5H41.25M37.5 31.875H41.25M37.5 13.125H41.25M13.125 37.5V41.25M13.125 3.75V7.5M11.25 7.5H33.75C35.8211 7.5 37.5 9.17893 37.5 11.25V33.75C37.5 35.8211 35.8211 37.5 33.75 37.5H11.25C9.17893 37.5 7.5 35.8211 7.5 33.75V11.25C7.5 9.17893 9.17893 7.5 11.25 7.5ZM16.875 15H28.125C29.1605 15 30 15.8395 30 16.875V28.125C30 29.1605 29.1605 30 28.125 30H16.875C15.8395 30 15 29.1605 15 28.125V16.875C15 15.8395 15.8395 15 16.875 15Z" stroke="white" stroke-width="2" stroke-linecap="round" stroke-linejoin="round"/>
</svg>
