<svg width="50" height="50" viewBox="0 0 50 50" fill="none" xmlns="http://www.w3.org/2000/svg">
<path d="M20.8333 20.8333L14.5833 14.5833M20.8333 29.1667L14.5833 35.4167M29.1667 20.8333L35.4167 14.5833M29.1667 29.1667L35.4167 35.4167M29.5938 8.62292C30.3895 7.84559 31.3329 7.23545 32.3682 6.82849C33.4035 6.42152 34.5098 6.22596 35.6219 6.25333C36.734 6.28071 37.8293 6.53046 38.8434 6.98787C39.8574 7.44529 40.7696 8.1011 41.5261 8.91664C42.2827 9.73217 42.8683 10.6909 43.2485 11.7364C43.6286 12.7818 43.7956 13.8928 43.7396 15.0038C43.6836 16.1149 43.4057 17.2034 42.9223 18.2053C42.4389 19.2072 41.7598 20.1022 40.925 20.8375M40.9104 29.1667C41.7521 29.8992 42.438 30.7934 42.9276 31.7961C43.4172 32.7987 43.7004 33.8895 43.7605 35.0037C43.8206 36.1179 43.6563 37.2328 43.2774 38.2823C42.8984 39.3319 42.3126 40.2946 41.5546 41.1134C40.7966 41.9322 39.8819 42.5905 38.8647 43.0492C37.8475 43.5078 36.7486 43.7576 35.6331 43.7835C34.5175 43.8095 33.4082 43.6111 32.3708 43.2003C31.3333 42.7894 30.389 42.1744 29.5938 41.3917M9.09792 20.8333C8.25541 20.1004 7.56882 19.2055 7.07894 18.202C6.58906 17.1984 6.30587 16.1067 6.2462 14.9916C6.18654 13.8764 6.35161 12.7607 6.73161 11.7106C7.11161 10.6605 7.6988 9.69754 8.45827 8.87884C9.21775 8.06015 10.134 7.40245 11.1527 6.94483C12.1713 6.4872 13.2716 6.23898 14.388 6.21491C15.5045 6.19085 16.6144 6.39142 17.6518 6.80473C18.6893 7.21803 19.633 7.83563 20.4271 8.62083M20.4062 41.3792C19.6084 42.1515 18.6641 42.7566 17.6291 43.1589C16.594 43.5611 15.489 43.7525 14.379 43.7216C13.2689 43.6908 12.1762 43.4384 11.1651 42.9793C10.154 42.5202 9.24482 41.8637 8.49102 41.0482C7.73723 40.2328 7.15402 39.2749 6.77565 38.2309C6.39729 37.1868 6.23141 36.0777 6.28775 34.9687C6.3441 33.8596 6.62153 32.773 7.10376 31.7727C7.58599 30.7724 8.26328 29.8786 9.09583 29.1438M22.9167 16.6667H27.0833C28.2339 16.6667 29.1667 17.5994 29.1667 18.75V31.25C29.1667 32.4006 28.2339 33.3333 27.0833 33.3333H22.9167C21.7661 33.3333 20.8333 32.4006 20.8333 31.25V18.75C20.8333 17.5994 21.7661 16.6667 22.9167 16.6667Z" stroke="#E0416E" stroke-width="2" stroke-linecap="round" stroke-linejoin="round"/>
</svg>
