<svg width="36" height="36" viewBox="0 0 36 36" fill="none" xmlns="http://www.w3.org/2000/svg">
<path d="M26.8333 8.5H26.85M9.33333 1H26C30.6024 1 34.3333 4.73096 34.3333 9.33333V26C34.3333 30.6024 30.6024 34.3333 26 34.3333H9.33333C4.73096 34.3333 1 30.6024 1 26V9.33333C1 4.73096 4.73096 1 9.33333 1ZM24.3333 16.6167C24.539 18.0037 24.3021 19.4204 23.6563 20.665C23.0104 21.9097 21.9886 22.919 20.736 23.5495C19.4835 24.1799 18.0641 24.3993 16.6796 24.1766C15.2952 23.9538 14.0163 23.3001 13.0247 22.3086C12.0332 21.3171 11.3796 20.0381 11.1568 18.6537C10.934 17.2693 11.1534 15.8498 11.7839 14.5973C12.4143 13.3448 13.4236 12.3229 14.6683 11.6771C15.913 11.0312 17.3296 10.7943 18.7167 11C20.1315 11.2098 21.4414 11.8691 22.4528 12.8805C23.4642 13.8919 24.1235 15.2018 24.3333 16.6167Z" stroke="#888E95" stroke-width="2" stroke-linecap="round" stroke-linejoin="round"/>
</svg>
