<svg width="45" height="45" viewBox="0 0 45 45" fill="none" xmlns="http://www.w3.org/2000/svg">
<path d="M22.5 22.5V18.75M22.5 33.75V30M30 22.5V18.75M30 33.75V30M3.75 20.625H6.5625M37.5 33.75V30M37.5 30C39.5711 30 41.25 28.3211 41.25 26.25V15C41.25 12.9289 39.5711 11.25 37.5 11.25H7.5C5.42893 11.25 3.75 12.9289 3.75 15V26.25C3.75 28.3211 5.42893 30 7.5 30M37.5 30H7.5M38.4375 20.625H41.25M7.5 33.75V30M15 22.5V18.75M15 33.75V30" stroke="white" stroke-width="2" stroke-linecap="round" stroke-linejoin="round"/>
</svg>
