<svg width="45" height="45" viewBox="0 0 45 45" fill="none" xmlns="http://www.w3.org/2000/svg">
<path d="M22.5 31.8751V39.3751M26.8219 14.1188L28.5525 13.4026M28.5525 9.09757L26.8219 8.37944M31.5975 6.05257L30.8794 4.32007M31.5975 16.4476L30.8794 18.1782M35.9025 6.05257L36.6206 4.32007M36.6188 18.1801L35.9025 16.4476M38.9475 9.09757L40.68 8.37944M38.9475 13.4026L40.68 14.1207M41.25 24.3751V28.1251C41.25 29.1196 40.8549 30.0735 40.1516 30.7767C39.4484 31.48 38.4946 31.8751 37.5 31.8751H7.5C6.50544 31.8751 5.55161 31.48 4.84835 30.7767C4.14509 30.0735 3.75 29.1196 3.75 28.1251V9.37507C3.75 8.38051 4.14509 7.42668 4.84835 6.72342C5.55161 6.02016 6.50544 5.62507 7.5 5.62507H20.625M15 39.3751H30M39.375 11.2501C39.375 14.3567 36.8566 16.8751 33.75 16.8751C30.6434 16.8751 28.125 14.3567 28.125 11.2501C28.125 8.14347 30.6434 5.62507 33.75 5.62507C36.8566 5.62507 39.375 8.14347 39.375 11.2501Z" stroke="white" stroke-width="2" stroke-linecap="round" stroke-linejoin="round"/>
</svg>
