<svg width="45" height="45" viewBox="0 0 45 45" fill="none" xmlns="http://www.w3.org/2000/svg">
<path d="M16.875 22.5001L20.625 26.2501L28.125 18.7501M37.5 24.3751C37.5 33.7501 30.9375 38.4376 23.1375 41.1564C22.7291 41.2948 22.2854 41.2881 21.8813 41.1376C14.0625 38.4376 7.5 33.7501 7.5 24.3751V11.2501C7.5 10.7528 7.69754 10.2759 8.04918 9.92429C8.40081 9.57266 8.87772 9.37511 9.375 9.37511C13.125 9.37511 17.8125 7.12511 21.075 4.27511C21.4722 3.93573 21.9775 3.74927 22.5 3.74927C23.0225 3.74927 23.5278 3.93573 23.925 4.27511C27.2063 7.14386 31.875 9.37511 35.625 9.37511C36.1223 9.37511 36.5992 9.57266 36.9508 9.92429C37.3025 10.2759 37.5 10.7528 37.5 11.2501V24.3751Z" stroke="white" stroke-width="2" stroke-linecap="round" stroke-linejoin="round"/>
</svg>
