<svg width="34" height="34" viewBox="0 0 34 34" fill="none" xmlns="http://www.w3.org/2000/svg">
<path d="M22.6667 14.1668C22.6667 15.6697 22.0696 17.1111 21.0069 18.1738C19.9442 19.2365 18.5029 19.8335 17 19.8335C15.4971 19.8335 14.0558 19.2365 12.9931 18.1738C11.9304 17.1111 11.3333 15.6697 11.3333 14.1668M4.39592 8.54833H29.6041M4.81667 7.74508C4.44884 8.23552 4.25 8.83203 4.25 9.44508V28.3335C4.25 29.0849 4.54851 29.8056 5.07986 30.337C5.61122 30.8683 6.33189 31.1668 7.08333 31.1668H26.9167C27.6681 31.1668 28.3888 30.8683 28.9201 30.337C29.4515 29.8056 29.75 29.0849 29.75 28.3335V9.44508C29.75 8.83203 29.5512 8.23552 29.1833 7.74508L26.35 3.96683C26.0861 3.61494 25.7439 3.32933 25.3504 3.13262C24.957 2.93591 24.5232 2.8335 24.0833 2.8335H9.91667C9.47681 2.8335 9.04298 2.93591 8.64956 3.13262C8.25614 3.32933 7.91392 3.61494 7.65 3.96683L4.81667 7.74508Z" stroke="white" stroke-width="2" stroke-linecap="round" stroke-linejoin="round"/>
</svg>
