<svg width="45" height="45" viewBox="0 0 45 45" fill="none" xmlns="http://www.w3.org/2000/svg">
<path d="M26.25 18.75H30M28.125 41.25V26.25M28.125 3.75V11.25M3.75 18.75H7.5M37.5 18.75H41.25M5.625 35.625H39.375M5.625 41.25V30C5.625 29.5075 5.722 29.0199 5.91045 28.5649C6.09891 28.11 6.37513 27.6966 6.72335 27.3484C7.07157 27.0001 7.48497 26.7239 7.93994 26.5355C8.39491 26.347 8.88254 26.25 9.375 26.25H35.625C36.1175 26.25 36.6051 26.347 37.0601 26.5355C37.515 26.7239 37.9284 27.0001 38.2766 27.3484C38.6249 27.6966 38.9011 28.11 39.0895 28.5649C39.278 29.0199 39.375 29.5075 39.375 30V41.25M5.625 3.75V7.5C5.625 8.49456 6.02009 9.44839 6.72335 10.1517C7.42661 10.8549 8.38044 11.25 9.375 11.25H35.625C36.6196 11.25 37.5734 10.8549 38.2766 10.1517C38.9799 9.44839 39.375 8.49456 39.375 7.5V3.75M15 18.75H18.75M16.875 41.25V26.25M16.875 3.75V11.25" stroke="white" stroke-width="2" stroke-linecap="round" stroke-linejoin="round"/>
</svg>
